<svg xmlns="http://www.w3.org/2000/svg" width="17.643" height="17.643" viewBox="0 0 17.643 17.643">
  <path id="Path_1077" data-name="Path 1077" d="M16.1-4.1a4.583,4.583,0,0,0,1.4-3.361A4.575,4.575,0,0,0,16.1-10.82a4.575,4.575,0,0,0-3.356-1.394A4.575,4.575,0,0,0,9.391-10.82,4.575,4.575,0,0,0,8-7.464,4.575,4.575,0,0,0,9.391-4.109a4.575,4.575,0,0,0,3.356,1.394A4.566,4.566,0,0,0,16.1-4.1Zm6.828,5.46a1.3,1.3,0,0,1-.4.954,1.3,1.3,0,0,1-.954.4,1.26,1.26,0,0,1-.954-.4L16.977-1.315A7.26,7.26,0,0,1,12.746,0a7.335,7.335,0,0,1-2.9-.588,7.463,7.463,0,0,1-2.386-1.59A7.463,7.463,0,0,1,5.87-4.564a7.335,7.335,0,0,1-.588-2.9,7.335,7.335,0,0,1,.588-2.9,7.463,7.463,0,0,1,1.59-2.386,7.463,7.463,0,0,1,2.386-1.59,7.335,7.335,0,0,1,2.9-.588,7.335,7.335,0,0,1,2.9.588,7.463,7.463,0,0,1,2.386,1.59,7.463,7.463,0,0,1,1.59,2.386,7.334,7.334,0,0,1,.588,2.9A7.26,7.26,0,0,1,18.9-3.234L22.533.4A1.3,1.3,0,0,1,22.925,1.357Z" transform="translate(-5.282 14.929)" fill="#006eb2"/>
</svg>
